<svg width="313" height="66" viewBox="0 0 313 66" fill="none" xmlns="http://www.w3.org/2000/svg">
<g clip-path="url(#clip0_2126_6956)">
<path d="M9.33741 40.9204L9.32645 40.8986L9.30438 40.909L8.55855 41.2618L8.53588 41.2726L8.54668 41.2952L8.97259 42.1878L8.12918 42.6223L8.10641 42.6341L8.11868 42.6565C8.47798 43.3147 8.86206 43.9574 9.26936 44.5831L9.28231 44.603L9.30285 44.5911L10.1083 44.1242L11.1604 45.5456L10.3861 46.1372L10.3664 46.1523L10.3813 46.1721C10.8568 46.8055 11.357 47.4188 11.882 48.0104L11.898 48.0284L11.9165 48.0131L12.5832 47.4671L13.8447 48.6985L13.2071 49.3739L13.1903 49.3917L13.2077 49.4088C13.7327 49.9276 14.2778 50.4278 14.84 50.9064L14.8566 50.9206L14.8729 50.9059L15.5449 50.3019L16.8669 51.4713L16.4715 52.1655L16.4605 52.1848L16.4785 52.198C17.0732 52.6347 17.6865 53.0482 18.3137 53.4385L18.3334 53.4508L18.3471 53.432L18.871 52.7133L20.4801 53.6062L20.1266 54.4521L20.1178 54.4732L20.1381 54.4839C20.7606 54.8107 21.3971 55.1157 22.0445 55.3976L22.0655 55.4068L22.0764 55.3866L22.4899 54.6246L24.2 55.2908L23.9723 56.131L23.9662 56.1534L23.9881 56.1611C24.6618 56.3981 25.3463 56.6102 26.0401 56.7976L26.0626 56.8037L26.0703 56.7817L26.3632 55.9421L28.1579 56.3122L28.0628 57.2382L28.0604 57.261L28.0829 57.2653C28.8046 57.4047 29.5356 57.5162 30.2759 57.5999L30.2984 57.6024L30.3031 57.5803L30.4951 56.6871L32.3214 56.8246L32.3411 57.7334L32.3416 57.7569L32.3651 57.7578C32.746 57.7733 33.1285 57.7826 33.5127 57.7826C33.886 57.7826 34.2561 57.7733 34.6246 57.7594L34.6482 57.7585L34.6487 57.7349L34.6652 56.9267L36.4916 56.7892L36.6618 57.5864L36.6666 57.6085L36.689 57.6061C37.4324 57.524 38.1681 57.4125 38.8929 57.2746L38.9154 57.2704L38.9131 57.2475L38.8272 56.4143L40.6219 56.0442L40.8854 56.7988L40.8931 56.8206L40.9155 56.8147C41.6124 56.6288 42.3 56.4166 42.9752 56.1812L42.9972 56.1736L42.9912 56.1511L42.7866 55.3929L44.4967 54.7267L44.8731 55.4206L44.8839 55.4407L44.9049 55.4317C45.5569 55.1514 46.195 54.8463 46.8207 54.5195L46.841 54.5089L46.8322 54.4877L46.5066 53.7099L48.1156 52.817L48.6009 53.4815L48.6145 53.5002L48.6342 53.4881C49.2661 53.0978 49.8809 52.6843 50.4802 52.2491L50.4983 52.236L50.4872 52.2165L50.1213 51.5735L51.4433 50.404L52.0751 50.9725L52.0912 50.987L52.1079 50.973C52.6747 50.496 53.2214 49.9973 53.7495 49.4785L53.767 49.4613L53.7502 49.4435L53.1435 48.8022L54.405 47.5708L55.0407 48.092L55.0592 48.1072L55.0752 48.0893C55.6017 47.4993 56.1035 46.8876 56.5805 46.2573L56.5955 46.2374L56.5757 46.2223L55.8263 45.6493L56.8784 44.2278L57.6637 44.6824L57.6841 44.6942L57.6971 44.6745C58.1075 44.0504 58.4932 43.4092 58.854 42.7525L58.8664 42.73L58.8435 42.7183L58.0156 42.2915L58.4415 41.3989L58.4523 41.3762L58.4296 41.3655L57.5675 40.9583C57.5284 40.9264 57.4942 40.9129 57.4622 40.9108C57.432 40.9087 57.4063 40.9173 57.3866 40.9239L57.3836 40.9249L57.3738 40.9282L57.3691 40.9375C57.3636 40.9485 57.3593 40.9576 57.3563 40.964L57.3529 40.9714L57.3522 40.973L57.352 40.9733L57.3519 40.9735C52.8948 49.7821 43.8033 55.8417 33.3533 55.8417C22.883 55.8417 13.7789 49.7587 9.33741 40.9204Z" fill="white" stroke="white" stroke-width="0.05"/>
<path d="M8.90947 40.0311C8.90525 40.0218 8.90192 40.0144 8.89977 40.0101C7.32768 36.5689 6.4481 32.7444 6.4481 28.719C6.4481 13.7789 18.5344 1.59557 33.3533 1.59557C48.1723 1.59557 60.2585 13.7805 60.2585 28.719C60.2585 32.6843 59.4052 36.4548 57.8778 39.8543L57.8545 39.9063L57.8861 39.8958C57.873 39.9287 57.8637 39.9568 57.8579 39.9809C57.8496 40.0153 57.8478 40.0434 57.853 40.0666C57.8643 40.1164 57.9051 40.1333 57.9372 40.146C57.9374 40.1461 57.9376 40.1462 57.9378 40.1463L59.719 40.9797L59.7417 40.9903L59.7523 40.9675C61.459 37.2863 62.413 33.1915 62.413 28.8783C62.413 12.9592 49.4287 -0.025 33.5096 -0.025C17.5905 -0.025 4.60781 12.9592 4.60781 28.8783C4.60781 33.1527 5.54478 37.2135 7.22203 40.8684L7.23254 40.8913L7.25535 40.8806L8.91566 40.1039L8.93842 40.0932L8.92766 40.0705C8.92068 40.0558 8.91446 40.0421 8.90947 40.0311Z" fill="white" stroke="white" stroke-width="0.05"/>
<path fill-rule="evenodd" clip-rule="evenodd" d="M8.90625 40.082C8.99909 40.2801 9.28381 40.8557 9.27916 40.8619C9.29154 40.8851 9.30392 40.9099 9.31475 40.9331" fill="white"/>
<path fill-rule="evenodd" clip-rule="evenodd" d="M26.0573 17.1074L26.0326 19.266C27.026 19.1964 27.5273 19.6822 27.9188 20.9433L27.8646 33.6672C27.4701 34.5833 26.8712 34.9577 25.8066 35.0986V37.9503L30.8804 37.955L30.933 35.0723C29.8205 34.9933 29.183 34.4518 29.0979 33.6549L29.1443 20.7515C29.8329 18.7677 32.5067 18.3886 32.5005 22.2013L32.9477 22.1998L32.909 17.1074H26.0573Z" fill="white"/>
<path fill-rule="evenodd" clip-rule="evenodd" d="M34.25 17.107L34.2531 22.2056L34.626 22.1963C34.7343 18.5677 36.455 18.7317 37.207 20.6211L37.1714 33.6065C36.9718 34.5984 36.1981 35.0115 35.2898 35.0734L35.3038 37.9793L40.3404 37.953L40.3265 34.9202C39.4522 35.126 38.8457 34.5504 38.4402 33.656L38.4666 20.6226C39.0453 18.1376 41.4468 19.1 41.0677 22.1994H41.4236L41.4158 17.1055L34.25 17.107Z" fill="white"/>
<path fill-rule="evenodd" clip-rule="evenodd" d="M42.6066 17.1074L42.5958 19.3031C43.3292 19.3 44.0534 19.6621 44.0364 20.4961L44.075 27.6573C44.2391 29.7973 46.5477 30.5137 47.9883 29.4708L47.9806 31.8429C47.5814 33.2139 46.9763 34.1933 45.6317 35.1512L42.2832 35.145L42.308 37.9658L50.1144 37.9411V35.1666L47.5814 35.1914C48.1786 34.6962 48.9384 33.5311 49.1952 32.4185L49.3747 20.425C49.4985 19.5801 49.9875 19.3403 50.9128 19.3016L50.9267 17.1152H47.3075L47.2935 19.2892C48.0224 19.6497 48.01 19.8756 48.0224 20.7623L47.9728 27.3386C47.6711 29.2743 45.4692 28.7915 45.265 27.5861L45.3145 20.818C45.2959 20.2192 45.4971 19.5708 46.1872 19.2815L46.1918 17.1183L42.6066 17.1074Z" fill="white"/>
<path fill-rule="evenodd" clip-rule="evenodd" d="M16.1517 17.125H25.1403L25.0769 19.2727C24.1407 19.1613 23.4847 19.5946 23.528 20.8804L23.4862 34.0516C23.6564 34.7355 24.1531 35.0774 24.8757 35.0744L24.8897 37.9509H15.1785L15.0918 35.062C15.9722 35.2724 16.961 34.8283 17.4097 33.2841L17.5103 22.5423C17.8121 21.0754 18.5037 19.8298 19.9288 19.2789L16.1564 19.2805L16.1517 17.125ZM19.0592 21.8383L19.0174 33.4109C19.5946 35.5277 21.8739 35.65 22.3505 33.4109L22.3365 21.518C21.5923 19.8654 19.6519 19.9366 19.0592 21.8383Z" fill="white"/>
<path fill-rule="evenodd" clip-rule="evenodd" d="M9.53516 17.2461H14.8612V17.8186H9.53516V17.2461Z" fill="white"/>
<path fill-rule="evenodd" clip-rule="evenodd" d="M52.2617 17.1621H57.1916V17.7346H52.2617V17.1621Z" fill="white"/>
<path fill-rule="evenodd" clip-rule="evenodd" d="M9.43555 38.9238H57.2752V39.4793H9.43555V38.9238Z" fill="white"/>
<path d="M17.4328 62.1773C17.7036 62.1588 17.8259 61.7271 17.6201 61.529C17.0584 61.0215 16.2801 60.6903 14.5625 60.8095C15.3857 61.6079 16.2986 62.2439 17.4328 62.1773Z" fill="white"/>
<path fill-rule="evenodd" clip-rule="evenodd" d="M17.4628 62.8326L13.2617 62.127L17.4628 62.8326Z" fill="white"/>
<path d="M13.2784 62.0459L13.252 62.2031L17.453 62.9094L17.4795 62.7522L13.2784 62.0459Z" fill="white"/>
<path d="M6.3501 58.6862L6.3125 58.8379L14.0231 60.7493L14.0607 60.5976L6.3501 58.6862Z" fill="white"/>
<path d="M4.42281 55.4997L4.38281 55.5801L11.6703 59.2084L11.7103 59.128L4.42281 55.4997Z" fill="white"/>
<path d="M2.69938 52.4203L2.64844 52.4961L9.39537 57.0325L9.44632 56.9568L2.69938 52.4203Z" fill="white"/>
<path d="M2.468 49.6521L2.41797 49.707L7.96468 54.7622L8.01471 54.7073L2.468 49.6521Z" fill="white"/>
<path d="M2.40772 47.3307L2.35742 47.3789L7.04791 52.2776L7.0982 52.2294L2.40772 47.3307Z" fill="white"/>
<path d="M3.49769 45.3457L3.47461 45.3613L6.25415 49.478L6.27724 49.4624L3.49769 45.3457Z" fill="white"/>
<path d="M7.19126 47.873L7.16602 47.8848L8.5991 50.9556L8.62434 50.9438L7.19126 47.873Z" fill="white"/>
<path d="M8.42407 48.5965L8.39844 48.6074L9.51956 51.2482L9.5452 51.2373L8.42407 48.5965Z" fill="white"/>
<path d="M9.97362 49.3211L9.94727 49.3301L11.1743 52.9205L11.2006 52.9115L9.97362 49.3211Z" fill="white"/>
<path d="M11.2588 50.4675L11.2324 50.4766L12.8532 55.1734L12.8795 55.1643L11.2588 50.4675Z" fill="white"/>
<path d="M12.2113 50.5578L12.1855 50.5684L14.7705 56.8938L14.7963 56.8833L12.2113 50.5578Z" fill="white"/>
<path d="M12.8725 50.4405L12.8477 50.4531L16.9299 58.4959L16.9547 58.4833L12.8725 50.4405Z" fill="white"/>
<path d="M18.892 60.2515C17.0089 57.3703 15.3718 54.3545 13.8848 51.0323L13.9095 51.0215C15.395 54.3421 17.0321 57.3564 18.9152 60.2376L18.892 60.2515Z" fill="white"/>
<path d="M22.6517 60.9073C20.5782 59.3306 18.8065 57.4165 17.0781 54.8866L17.1013 54.8711C18.8282 57.3995 20.5984 59.3105 22.6687 60.8857L22.6517 60.9073Z" fill="white"/>
<path fill-rule="evenodd" clip-rule="evenodd" d="M10.7658 56.8405C11.0366 56.8838 11.2594 56.5047 11.1047 56.2711C10.673 55.6692 9.9875 55.1833 8.27148 54.9141C8.88888 55.8487 9.63471 56.6502 10.7658 56.8405Z" fill="white"/>
<path d="M10.8068 56.8448C10.7929 56.8448 10.7789 56.8432 10.765 56.8417C10.2374 56.7535 9.76542 56.5291 9.32442 56.1577C8.96544 55.8545 8.62966 55.4599 8.26913 54.9152L8.26758 54.9121H8.27067C9.07839 55.039 9.70043 55.22 10.1693 55.4645C10.5623 55.6703 10.8594 55.9256 11.1039 56.2691C11.1782 56.3821 11.1704 56.5415 11.0853 56.6745C11.0172 56.7813 10.9136 56.8448 10.8068 56.8448ZM10.7666 56.8386C10.8857 56.8571 11.0064 56.7937 11.0853 56.6715C11.1704 56.5399 11.1782 56.3821 11.1039 56.2707C10.7217 55.7368 10.1151 55.2046 8.27531 54.9152C8.79677 55.7044 9.55034 56.6343 10.7666 56.8386Z" fill="white"/>
<path fill-rule="evenodd" clip-rule="evenodd" d="M9.33451 54.8703C9.579 54.9616 9.8668 54.6475 9.77087 54.3999C9.4908 53.7531 8.94767 53.1698 7.39258 52.5957C7.77942 53.5876 8.31326 54.4804 9.33451 54.8703Z" fill="white"/>
<path d="M9.42345 54.8877C9.39405 54.8877 9.3631 54.883 9.33525 54.8722L9.3337 54.8706C8.85712 54.6881 8.46099 54.3894 8.12367 53.9577C7.84824 53.6065 7.61613 53.1732 7.39022 52.5929L7.38867 52.5898L7.39177 52.5914C8.12367 52.8622 8.66988 53.1484 9.05982 53.4672C9.38631 53.7333 9.61223 54.0289 9.7716 54.3972C9.81802 54.5163 9.77934 54.6633 9.67103 54.7716C9.5983 54.849 9.5101 54.8877 9.42345 54.8877ZM9.3337 54.8691C9.44202 54.9093 9.57045 54.8722 9.66948 54.7716C9.77625 54.6633 9.81493 54.5179 9.76851 54.4003C9.52093 53.8277 9.06137 53.2134 7.39486 52.5976C7.72135 53.4347 8.23663 54.4482 9.3337 54.8691Z" fill="white"/>
<path fill-rule="evenodd" clip-rule="evenodd" d="M8.61089 52.8223C8.87704 52.9539 9.22829 52.6134 9.14318 52.3117C8.89096 51.5241 8.33701 50.7845 6.65039 49.9551C6.98926 51.1605 7.50453 52.2622 8.61089 52.8223Z" fill="white"/>
<path d="M8.73737 52.8544C8.69405 52.8544 8.65072 52.8451 8.61049 52.825C8.34434 52.6904 8.09986 52.5171 7.88478 52.3097C7.68517 52.1179 7.50258 51.8904 7.34165 51.632C7.06622 51.191 6.8465 50.6587 6.64999 49.9562L6.64844 49.9531L6.65153 49.9547C7.44688 50.3446 8.03023 50.7361 8.43564 51.1492C8.77606 51.4943 9.00042 51.8641 9.14433 52.3128C9.1923 52.4862 9.09791 52.6595 8.98185 52.7569C8.90449 52.8204 8.81783 52.8544 8.73737 52.8544ZM8.61204 52.8219C8.72499 52.8776 8.86271 52.8513 8.98031 52.7538C9.09481 52.6579 9.1892 52.4846 9.14123 52.3144C8.91841 51.6181 8.46194 50.8506 6.65308 49.9609C6.93934 50.9775 7.42057 52.22 8.61204 52.8219Z" fill="white"/>
<path fill-rule="evenodd" clip-rule="evenodd" d="M10.2887 54.7632C10.462 54.9675 10.8751 54.8128 10.9123 54.5327C10.9865 53.79 10.7947 52.9776 9.69605 51.6855C9.54286 52.8043 9.57226 53.9014 10.2887 54.7632Z" fill="white"/>
<path d="M10.5048 54.8603C10.4166 54.8603 10.3392 54.8278 10.2866 54.7659C9.9524 54.3636 9.74969 53.8917 9.66459 53.3222C9.59496 52.8596 9.60579 52.3397 9.69399 51.6867V51.6836L9.69708 51.6867C10.2139 52.2963 10.5574 52.8286 10.7446 53.3176C10.9025 53.7261 10.9551 54.1129 10.9133 54.5354C10.8916 54.6963 10.7493 54.8062 10.6193 54.8448C10.5791 54.8541 10.5404 54.8603 10.5048 54.8603ZM10.2897 54.7644C10.3624 54.851 10.4862 54.8789 10.6193 54.8402C10.7493 54.8031 10.8885 54.6932 10.9102 54.5338C10.9752 53.8762 10.8746 53.0762 9.69708 51.6898C9.56865 52.6352 9.51914 53.836 10.2897 54.7644Z" fill="white"/>
<path fill-rule="evenodd" clip-rule="evenodd" d="M11.9341 56.7003C12.1245 56.9169 12.5933 56.7575 12.6428 56.4635C12.7449 55.6837 12.5484 54.828 11.3446 53.457C11.145 54.6346 11.1496 55.7858 11.9341 56.7003Z" fill="white"/>
<path d="M12.1813 56.802C12.0792 56.802 11.9895 56.7664 11.9322 56.7014C11.7434 56.4817 11.5918 56.2372 11.4804 55.9742C11.3782 55.7312 11.3055 55.4635 11.2668 55.1773C11.2003 54.6899 11.2251 54.1436 11.3411 53.4582V53.4551L11.3427 53.4582C11.9105 54.1034 12.2835 54.6682 12.4815 55.1835C12.6486 55.6136 12.6981 56.0221 12.6409 56.4662C12.6285 56.5405 12.5883 56.6101 12.5264 56.6674C12.4691 56.72 12.3933 56.7618 12.3129 56.785C12.2711 56.7958 12.2247 56.802 12.1813 56.802ZM11.9353 56.6999C12.0173 56.7927 12.1628 56.8237 12.3159 56.7803C12.4893 56.7308 12.6177 56.607 12.6424 56.4647C12.7322 55.7746 12.6378 54.9328 11.3473 53.4628C11.1771 54.4531 11.092 55.7173 11.9353 56.6999Z" fill="white"/>
<path fill-rule="evenodd" clip-rule="evenodd" d="M12.8071 58.7146C13.0887 58.6883 13.197 58.1901 12.9727 57.9642C12.3615 57.3916 11.5305 57.0249 9.74023 57.1936C10.6377 58.0957 11.6218 58.8106 12.8071 58.7146Z" fill="white"/>
<path d="M12.5958 58.7237C12.3808 58.7237 12.1672 58.6974 11.9552 58.6448C11.6953 58.5798 11.4291 58.4746 11.1661 58.3291C10.7174 58.0816 10.264 57.721 9.73942 57.1934L9.73633 57.1903H9.73942C10.5827 57.1098 11.2558 57.1454 11.799 57.297C12.2523 57.4239 12.6252 57.6344 12.9734 57.9609C13.1127 58.1001 13.1173 58.3276 13.0616 58.4808C13.0121 58.6185 12.9192 58.7036 12.8078 58.7144H12.8063C12.7367 58.7222 12.6655 58.7237 12.5958 58.7237ZM9.74406 57.1949C10.4605 57.9144 11.4214 58.7222 12.5974 58.7222C12.667 58.7222 12.7367 58.7191 12.8078 58.7129H12.8094C12.9192 58.702 13.0105 58.6185 13.0601 58.4823C13.1142 58.3307 13.1111 58.1048 12.9719 57.9655C12.5138 57.5369 11.8964 57.1531 10.5595 57.1531C10.3135 57.1531 10.0427 57.1655 9.74406 57.1949Z" fill="white"/>
<path fill-rule="evenodd" clip-rule="evenodd" d="M15.0087 60.3175C15.281 60.2618 15.346 59.8069 15.1093 59.6336C14.4687 59.1957 13.6331 58.9651 11.9062 59.321C12.8517 60.0204 13.8652 60.5403 15.0087 60.3175Z" fill="white"/>
<path d="M14.469 60.3717C14.1131 60.3717 13.7541 60.3036 13.3812 60.1659C12.9247 59.9973 12.4559 59.7296 11.9035 59.3226L11.9004 59.3211H11.9035C12.7174 59.154 13.3735 59.1075 13.912 59.1787C14.3622 59.2391 14.7429 59.383 15.1065 59.6321C15.2411 59.7311 15.2721 59.9153 15.2411 60.053C15.2102 60.1953 15.122 60.2959 15.0044 60.3191C14.828 60.3547 14.65 60.3717 14.469 60.3717ZM11.9097 59.3226C12.7066 59.9106 13.7789 60.5559 15.0075 60.316C15.1235 60.2928 15.2102 60.1938 15.2411 60.053C15.2705 59.9168 15.2411 59.7342 15.1081 59.6352C14.5402 59.2483 13.7603 58.942 11.9097 59.3226Z" fill="white"/>
<path fill-rule="evenodd" clip-rule="evenodd" d="M13.9766 58.7621C14.1809 58.9555 14.608 58.7559 14.6234 58.4635C14.6327 57.6914 14.3527 56.8759 13.0575 55.6504C12.9972 56.8186 13.1302 57.9436 13.9766 58.7621Z" fill="white"/>
<path d="M14.1831 58.8406C14.1026 58.8406 14.0283 58.8143 13.9757 58.7633C13.5812 58.3811 13.3181 57.9153 13.1757 57.3382C13.0582 56.8678 13.021 56.3324 13.0551 55.6515V55.6484L13.0581 55.6515C13.6678 56.2287 14.0856 56.744 14.3316 57.2283C14.5374 57.6337 14.6318 58.0267 14.6256 58.4662C14.6225 58.5389 14.5916 58.6116 14.539 58.6735C14.4895 58.7308 14.4229 58.7787 14.3486 58.8081C14.2914 58.8283 14.2357 58.8406 14.1831 58.8406ZM13.9773 58.7617C14.0639 58.8437 14.2063 58.8608 14.3456 58.805C14.5049 58.7401 14.6132 58.607 14.621 58.4662C14.6303 57.7838 14.4461 56.9699 13.0581 55.6577C13.0071 56.6403 13.0674 57.8813 13.9773 58.7617Z" fill="white"/>
<path fill-rule="evenodd" clip-rule="evenodd" d="M16.1407 60.3164C16.3589 60.4774 16.7488 60.2453 16.7303 59.9698C16.6544 59.2426 16.2954 58.5045 14.9121 57.4863C14.9848 58.5896 15.2371 59.6341 16.1407 60.3164Z" fill="white"/>
<path d="M16.3109 60.3698C16.2475 60.3698 16.1887 60.3528 16.1407 60.3172C15.7183 59.9984 15.415 59.5868 15.2138 59.0592C15.0498 58.629 14.9539 58.1292 14.9121 57.4855V57.4824L14.9152 57.484C15.5666 57.9637 16.0247 58.4062 16.314 58.8348C16.5569 59.1938 16.69 59.5543 16.7333 59.9675C16.7426 60.099 16.656 60.2352 16.5121 60.3141C16.444 60.3512 16.3759 60.3698 16.3109 60.3698ZM16.1423 60.3141C16.2382 60.3853 16.379 60.3837 16.5105 60.311C16.6529 60.2336 16.738 60.099 16.7287 59.9675C16.6622 59.3253 16.396 58.5795 14.9152 57.4871C14.9756 58.4201 15.1705 59.5806 16.1423 60.3141Z" fill="white"/>
<path fill-rule="evenodd" clip-rule="evenodd" d="M17.4405 62.2716C17.7113 62.253 17.9589 61.8941 17.7825 61.6032C17.4931 61.0229 16.2661 60.4983 14.3164 60.7165C15.135 61.6016 16.3017 62.4341 17.4405 62.2716Z" fill="white"/>
<path d="M17.1473 62.2931C16.7078 62.2931 16.2405 62.1569 15.7562 61.8877C15.2719 61.6184 14.7736 61.213 14.314 60.7179L14.3125 60.7148H14.3156C15.2115 60.6142 16.0254 60.6637 16.6722 60.8587C16.9569 60.9438 17.1999 61.0552 17.3933 61.1883C17.5774 61.3152 17.7089 61.4544 17.7832 61.603C17.859 61.7299 17.8621 61.8815 17.7894 62.0208C17.7151 62.1647 17.5774 62.2637 17.4397 62.273C17.3438 62.2869 17.2463 62.2931 17.1473 62.2931ZM14.3187 60.7179C14.7767 61.2115 15.9171 62.29 17.1504 62.29C17.2463 62.29 17.3422 62.2838 17.4397 62.2699C17.5774 62.2606 17.7136 62.1616 17.7879 62.0192C17.859 61.8815 17.8575 61.7299 17.7817 61.6045C17.5387 61.1156 16.6459 60.6668 15.2007 60.6668C14.9253 60.6668 14.6328 60.6838 14.3187 60.7179Z" fill="white"/>
<path fill-rule="evenodd" clip-rule="evenodd" d="M18.1238 61.76C18.3049 61.9147 18.6453 61.7197 18.6376 61.4691C18.5958 60.8068 18.3126 60.1229 17.166 59.1465C17.1923 60.1507 17.3749 61.107 18.1238 61.76Z" fill="white"/>
<path d="M18.2797 61.816C18.2209 61.816 18.1683 61.7974 18.125 61.7618L18.1219 61.7588C17.7722 61.4539 17.5261 61.0702 17.3714 60.5828C17.2445 60.1866 17.1795 59.7286 17.1641 59.1437V59.1406L17.1672 59.1437C17.7072 59.6033 18.0832 60.0226 18.3184 60.4234C18.5134 60.7592 18.6155 61.0903 18.6402 61.4679C18.6449 61.6118 18.5366 61.7278 18.4283 61.7804C18.3772 61.8036 18.3277 61.816 18.2797 61.816ZM18.1234 61.7572C18.2008 61.8237 18.3137 61.8315 18.4252 61.7773C18.5335 61.7263 18.6402 61.6102 18.6356 61.4679C18.5985 60.8829 18.3958 60.1959 17.1672 59.1484C17.1904 59.9963 17.3188 61.0563 18.1234 61.7572Z" fill="white"/>
<path fill-rule="evenodd" clip-rule="evenodd" d="M33.4153 65.9793C29.875 65.6357 26.364 65.4655 22.6333 64.0172C22.0701 63.7511 21.3862 63.6752 20.5862 63.7913C19.7197 63.8795 18.7108 63.3627 17.6973 62.8273C18.3704 62.5054 19.1363 62.2563 21.0148 63.2791C21.3336 63.4416 21.6399 63.0609 21.0829 62.9016C19.6454 62.476 19.2818 61.6405 19.0698 60.7461C20.8446 61.1995 21.4759 62.6199 22.1861 63.143C25.7899 65.139 30.8158 65.3557 33.4447 65.5893C33.6706 65.6017 33.6474 65.9932 33.4153 65.9793Z" fill="white"/>
<path d="M33.4284 65.9796C33.4238 65.9796 33.4207 65.9796 33.4161 65.9796C32.9952 65.9394 32.5666 65.8991 32.1534 65.862C30.6215 65.7227 29.037 65.5773 27.4572 65.3111C26.6061 65.1672 25.8263 65.0017 25.0696 64.8036C24.2201 64.5808 23.4232 64.3239 22.6341 64.016C22.0724 63.7514 21.3838 63.6756 20.5869 63.7901C20.1954 63.8303 19.7405 63.7483 19.1958 63.5425C18.7193 63.3615 18.2349 63.1108 17.6965 62.8261L17.6934 62.8245L17.6965 62.823C18.0214 62.6682 18.3819 62.5182 18.9034 62.5445C19.4728 62.5723 20.1645 62.8122 21.0155 63.2748C21.1471 63.3413 21.2647 63.3119 21.325 63.2671C21.3745 63.2299 21.3977 63.1773 21.3885 63.1247C21.3792 63.0706 21.325 62.97 21.0836 62.9003C20.4244 62.7054 19.9448 62.4098 19.6167 61.9982C19.3026 61.6021 19.1633 61.1426 19.069 60.7433V60.7402H19.0721C19.6229 60.881 20.1119 61.1255 20.5653 61.4892C20.9583 61.8048 21.2647 62.1576 21.5339 62.4702C21.7706 62.7441 21.9734 62.9793 22.1884 63.1371C25.4317 64.9336 29.9144 65.2957 32.5929 65.5123C32.8977 65.537 33.1855 65.5603 33.447 65.5835C33.5089 65.5866 33.5569 65.6191 33.5847 65.6732C33.6203 65.7428 33.6141 65.8372 33.5708 65.9022C33.5352 65.9533 33.4857 65.9796 33.4284 65.9796ZM33.4161 65.9765C33.478 65.9796 33.5306 65.9548 33.5646 65.9038C33.6064 65.8403 33.6126 65.7475 33.5785 65.6779C33.5522 65.6237 33.5043 65.5927 33.4439 65.5897C33.1824 65.5664 32.8946 65.5432 32.5898 65.5185C31.177 65.404 29.4177 65.2616 27.5671 64.9212C26.5613 64.7355 25.6267 64.5065 24.7895 64.2419C23.8194 63.934 22.942 63.5642 22.1838 63.1448C21.9687 62.987 21.766 62.7503 21.5293 62.4779C20.9846 61.8481 20.3084 61.0667 19.0721 60.7495C19.2639 61.5603 19.5951 62.4609 21.0836 62.9019C21.3281 62.9715 21.3807 63.0737 21.3915 63.1278C21.4008 63.182 21.3776 63.2361 21.3281 63.2733C21.2662 63.3197 21.1486 63.3491 21.0155 63.281C19.1804 62.2814 18.4005 62.4949 17.7026 62.8276C18.5692 63.2856 19.5409 63.7994 20.3904 63.7994C20.4569 63.7994 20.5235 63.7963 20.5885 63.7901C20.9877 63.7328 21.3621 63.7235 21.701 63.7607C22.0414 63.7978 22.3555 63.8845 22.6356 64.0175C25.9222 65.2941 29.0912 65.5835 32.155 65.862C32.5666 65.896 32.9952 65.9347 33.4161 65.9765Z" fill="white"/>
<path fill-rule="evenodd" clip-rule="evenodd" d="M33.1278 64.6633C33.2965 64.5194 33.1681 64.179 32.936 64.148C32.3217 64.0877 31.6517 64.2471 30.584 65.1554C31.5109 65.2792 32.4161 65.2544 33.1278 64.6633Z" fill="white"/>
<path d="M31.399 65.218C31.1546 65.218 30.8869 65.1979 30.5851 65.1561H30.582L30.5851 65.153C31.088 64.7244 31.529 64.4413 31.9313 64.2865C32.2687 64.1566 32.589 64.1117 32.9387 64.1457C33.0702 64.1627 33.1615 64.2803 33.194 64.3871C33.2265 64.4985 33.2033 64.6022 33.1305 64.6641C32.7978 64.9411 32.4079 65.1082 31.9375 65.1793C31.7689 65.2057 31.5909 65.218 31.399 65.218ZM30.5882 65.153C31.3696 65.2583 32.363 65.2985 33.1274 64.6625C33.1986 64.6022 33.2218 64.5001 33.1893 64.3887C33.1584 64.2819 33.0671 64.1658 32.9371 64.1488C32.394 64.0962 31.7333 64.1798 30.5882 65.153Z" fill="white"/>
<path fill-rule="evenodd" clip-rule="evenodd" d="M30.3556 64.4512C30.5397 64.3289 30.4531 63.9746 30.2271 63.9158C29.6252 63.7827 28.9397 63.8616 27.7715 64.6369C28.6767 64.8721 29.5788 64.9541 30.3556 64.4512Z" fill="white"/>
<path d="M29.0163 64.8236C28.6542 64.8236 28.255 64.7632 27.7707 64.6379L27.7676 64.6364L27.7707 64.6348C28.3215 64.2696 28.7919 64.0406 29.2113 63.9339C29.561 63.8441 29.8844 63.8379 30.2279 63.9138C30.3579 63.9462 30.4337 64.0731 30.4522 64.1845C30.4724 64.299 30.4352 64.3996 30.3563 64.4522C29.9942 64.6874 29.5873 64.8081 29.1107 64.8221C29.0797 64.8236 29.0488 64.8236 29.0163 64.8236ZM27.7753 64.6348C28.5382 64.8329 29.5192 64.9892 30.3548 64.4491C30.4321 64.3965 30.4677 64.299 30.4491 64.1845C30.4306 64.0747 30.3548 63.9493 30.2263 63.9168C29.694 63.7992 29.0271 63.8054 27.7753 64.6348Z" fill="white"/>
<path fill-rule="evenodd" clip-rule="evenodd" d="M27.8543 63.7231C28.0679 63.5807 27.9673 63.1707 27.7058 63.1042C27.0079 62.9494 26.2157 63.0407 24.8633 63.9382C25.9093 64.209 26.9538 64.3049 27.8543 63.7231Z" fill="white"/>
<path d="M26.3046 64.153C25.8853 64.153 25.4242 64.0834 24.8625 63.9379L24.8594 63.9364L24.8625 63.9348C25.5 63.5124 26.0447 63.2463 26.5305 63.1225C26.9359 63.0188 27.3104 63.0126 27.7065 63.0993C27.8566 63.1379 27.9448 63.2834 27.9665 63.4118C27.9897 63.5449 27.9479 63.6609 27.8566 63.7213C27.4373 63.9936 26.9653 64.1329 26.416 64.1499C26.3773 64.153 26.3417 64.153 26.3046 64.153ZM24.8671 63.9364C25.7507 64.1654 26.888 64.3464 27.8535 63.7213C27.9448 63.6609 27.985 63.5464 27.9618 63.4149C27.9402 63.288 27.852 63.1426 27.705 63.1055C27.0876 62.9677 26.317 62.9755 24.8671 63.9364Z" fill="white"/>
<path fill-rule="evenodd" clip-rule="evenodd" d="M33.0195 63.887C33.2779 63.8994 33.4403 63.5048 33.267 63.2944C32.7904 62.7528 32.0926 62.3551 30.457 62.2793C31.1472 63.1257 31.9409 63.8267 33.0195 63.887Z" fill="white"/>
<path d="M33.031 63.8901C33.0279 63.8901 33.0233 63.8901 33.0202 63.8901C32.5173 63.8607 32.05 63.6951 31.592 63.3795C31.2191 63.1242 30.8585 62.7745 30.4562 62.2824L30.4531 62.2793H30.4562C31.2268 62.3149 31.8287 62.4232 32.296 62.612C32.6875 62.7698 32.9954 62.9864 33.2662 63.2944C33.3653 63.4151 33.3498 63.5868 33.291 63.7044C33.2353 63.8205 33.1378 63.8901 33.031 63.8901ZM33.0202 63.8855C33.0233 63.8855 33.0279 63.8855 33.031 63.8855C33.1362 63.8855 33.2322 63.8174 33.291 63.7013C33.3498 63.5853 33.3637 63.4151 33.2662 63.2959C32.8453 62.8178 32.214 62.3629 30.4609 62.2824C31.0442 62.9942 31.8612 63.8205 33.0202 63.8855Z" fill="white"/>
<path fill-rule="evenodd" clip-rule="evenodd" d="M30.0623 63.5706C30.3052 63.6139 30.5079 63.2627 30.3717 63.0414C29.9895 62.4689 29.3799 62.0031 27.8418 61.7246C28.3865 62.6128 29.0487 63.3756 30.0623 63.5706Z" fill="white"/>
<path d="M30.1032 63.5768C30.0893 63.5768 30.0754 63.5752 30.0614 63.5737C29.588 63.4824 29.1671 63.2658 28.7756 62.9099C28.4553 62.6205 28.1582 62.2445 27.8394 61.7277L27.8379 61.7246H27.841C28.5651 61.8561 29.1207 62.0356 29.54 62.2724C29.8912 62.4704 30.1543 62.7149 30.3725 63.0414C30.4514 63.1683 30.4142 63.3292 30.3446 63.4329C30.2812 63.5242 30.193 63.5768 30.1032 63.5768ZM30.0614 63.5691C30.1636 63.5876 30.2688 63.535 30.3415 63.4298C30.4111 63.3277 30.4467 63.1683 30.3694 63.043C30.032 62.537 29.492 62.0279 27.8441 61.7277C28.3036 62.4751 28.9721 63.3602 30.0614 63.5691Z" fill="white"/>
<path fill-rule="evenodd" clip-rule="evenodd" d="M27.4711 62.784C27.6986 62.7994 27.8518 62.4544 27.7032 62.264C27.2932 61.7751 26.6835 61.4068 25.2383 61.3047C25.8294 62.0691 26.5164 62.7066 27.4711 62.784Z" fill="white"/>
<path d="M27.4858 62.7871C27.4811 62.7871 27.4749 62.7871 27.4703 62.7871C27.0247 62.7515 26.6146 62.5936 26.2169 62.3043C25.8935 62.0691 25.581 61.7534 25.2359 61.3078L25.2344 61.3047H25.2375C25.9183 61.3527 26.4491 61.4625 26.8591 61.6389C27.2026 61.7875 27.4703 61.9855 27.704 62.264C27.7891 62.3724 27.772 62.524 27.7179 62.6277C27.6637 62.7283 27.5771 62.7871 27.4858 62.7871ZM27.4703 62.7824C27.5678 62.7886 27.6575 62.7298 27.7148 62.6261C27.7689 62.524 27.786 62.3739 27.7009 62.2671C27.3388 61.8339 26.7895 61.4192 25.2406 61.3093C25.7404 61.9515 26.446 62.6989 27.4703 62.7824Z" fill="white"/>
<path fill-rule="evenodd" clip-rule="evenodd" d="M25.1957 62.6687C25.4232 62.6842 25.5764 62.3391 25.4278 62.1488C25.0178 61.6599 24.4081 61.2916 22.9629 61.1895C23.554 61.9523 24.241 62.5898 25.1957 62.6687Z" fill="white"/>
<path d="M25.2104 62.6699C25.2057 62.6699 25.1996 62.6699 25.1949 62.6699C24.7493 62.6343 24.3392 62.4765 23.9416 62.1871C23.6182 61.9519 23.3056 61.6362 22.9605 61.1906L22.959 61.1875H22.9621C23.6429 61.2355 24.1737 61.3453 24.5837 61.5217C24.9272 61.6703 25.1949 61.8683 25.4286 62.1469C25.5137 62.2552 25.4967 62.4068 25.4425 62.5105C25.3883 62.6111 25.3017 62.6699 25.2104 62.6699ZM25.1949 62.6652C25.2909 62.6714 25.3821 62.6126 25.4379 62.509C25.492 62.4068 25.509 62.2567 25.4239 62.15C25.0618 61.7167 24.5125 61.302 22.9636 61.1921C23.465 61.8343 24.1706 62.5817 25.1949 62.6652Z" fill="white"/>
<path fill-rule="evenodd" clip-rule="evenodd" d="M49.5996 62.8306L53.8007 62.125L49.5996 62.8306Z" fill="white"/>
<path d="M53.7929 62.0476L49.5918 62.7539L49.6182 62.9111L53.8193 62.2048L53.7929 62.0476Z" fill="white"/>
<path d="M60.7067 58.6812L52.9961 60.5918L53.0337 60.7435L60.7443 58.8329L60.7067 58.6812Z" fill="white"/>
<path d="M62.643 55.5045L55.3555 59.1328L55.3955 59.2132L62.683 55.5849L62.643 55.5045Z" fill="white"/>
<path d="M64.3602 52.4183L57.6133 56.9531L57.6642 57.0289L64.4111 52.4941L64.3602 52.4183Z" fill="white"/>
<path d="M64.5963 49.6565L59.0488 54.7109L59.0989 54.7658L64.6463 49.7114L64.5963 49.6565Z" fill="white"/>
<path d="M64.6573 47.3259L59.9668 52.2246L60.0171 52.2728L64.7076 47.3741L64.6573 47.3259Z" fill="white"/>
<path d="M63.5657 45.3453L60.7852 49.4609L60.8082 49.4765L63.5888 45.3609L63.5657 45.3453Z" fill="white"/>
<path d="M59.8758 47.8702L58.4434 50.9414L58.4686 50.9532L59.901 47.882L59.8758 47.8702Z" fill="white"/>
<path d="M58.6459 48.5934L57.5254 51.2344L57.551 51.2453L58.6716 48.6042L58.6459 48.5934Z" fill="white"/>
<path d="M57.0876 49.3178L55.8613 52.9082L55.8877 52.9172L57.1139 49.3268L57.0876 49.3178Z" fill="white"/>
<path d="M55.8078 50.4697L54.1855 55.166L54.2119 55.1751L55.8341 50.4788L55.8078 50.4697Z" fill="white"/>
<path d="M54.8499 50.5554L52.2656 56.8809L52.2914 56.8914L54.8757 50.566L54.8499 50.5554Z" fill="white"/>
<path d="M54.1946 50.4368L50.1133 58.4805L50.1381 58.4931L54.2195 50.4494L54.1946 50.4368Z" fill="white"/>
<path d="M48.1716 60.2511L48.1484 60.2356C50.03 57.356 51.6671 54.3417 53.1541 51.0195L53.1789 51.0304C51.6919 54.3541 50.0548 57.3699 48.1716 60.2511Z" fill="white"/>
<path d="M44.4116 60.9073L44.3945 60.8857C46.4664 59.3105 48.2351 57.3995 49.9619 54.8711L49.9851 54.8866C48.2567 57.4165 46.485 59.329 44.4116 60.9073Z" fill="white"/>
<path fill-rule="evenodd" clip-rule="evenodd" d="M56.296 56.8386C56.0252 56.8819 55.8024 56.5028 55.9571 56.2691C56.3888 55.6672 57.0743 55.1813 58.7903 54.9121C58.1729 55.8467 57.4271 56.6482 56.296 56.8386Z" fill="white"/>
<path d="M56.2558 56.8444C56.149 56.8444 56.0453 56.7809 55.9757 56.6726C55.8906 56.5395 55.8829 56.3801 55.9571 56.2672C56.2032 55.9237 56.5003 55.6684 56.8933 55.4626C57.3621 55.2165 57.9842 55.0355 58.7919 54.9102H58.795L58.7934 54.9132C58.4329 55.4579 58.0987 55.854 57.7381 56.1558C57.2972 56.5271 56.8252 56.7515 56.2976 56.8397C56.2836 56.8428 56.2697 56.8444 56.2558 56.8444ZM58.7873 54.9148C56.9474 55.2026 56.3409 55.7364 55.9587 56.2703C55.8844 56.3817 55.8922 56.5395 55.9773 56.671C56.0546 56.7917 56.1769 56.8567 56.296 56.8382C57.5122 56.6339 58.2658 55.7039 58.7873 54.9148Z" fill="white"/>
<path fill-rule="evenodd" clip-rule="evenodd" d="M57.7287 54.8703C57.4842 54.9616 57.1964 54.6475 57.2924 54.3999C57.5724 53.7531 58.1156 53.1698 59.6706 52.5957C59.2854 53.5876 58.7515 54.4804 57.7287 54.8703Z" fill="white"/>
<path d="M57.6387 54.8881C57.5536 54.8881 57.4638 54.8478 57.3911 54.7736C57.2844 54.6653 57.2441 54.5183 57.2905 54.3991C57.4499 54.0308 57.6758 53.7353 58.0023 53.4692C58.3923 53.1504 58.9369 52.8641 59.6704 52.5933L59.6735 52.5918L59.6719 52.5949C59.446 53.1736 59.2139 53.6069 58.9385 53.9597C58.6012 54.3914 58.205 54.69 57.7284 54.8726L57.7269 54.8742C57.699 54.8834 57.6696 54.8881 57.6387 54.8881ZM59.6688 52.598C58.0023 53.2138 57.5428 53.8281 57.2952 54.4007C57.2488 54.5183 57.289 54.6637 57.3942 54.772C57.4932 54.8726 57.6201 54.9097 57.7284 54.8695H57.73C58.8271 54.4486 59.3423 53.4351 59.6688 52.598Z" fill="white"/>
<path fill-rule="evenodd" clip-rule="evenodd" d="M58.4515 52.8223C58.1854 52.9539 57.8341 52.6134 57.9192 52.3117C58.1714 51.5241 58.7254 50.7845 60.412 49.9551C60.0716 51.1605 59.5579 52.2622 58.4515 52.8223Z" fill="white"/>
<path d="M58.3256 52.8544C58.2436 52.8544 58.1585 52.8204 58.0795 52.7569C57.9635 52.661 57.8691 52.4862 57.9171 52.3128C58.061 51.8641 58.2853 51.4943 58.6258 51.1492C59.0312 50.7361 59.6161 50.3461 60.4099 49.9547L60.413 49.9531L60.4114 49.9562C60.2133 50.6587 59.9936 51.191 59.7197 51.632C59.5588 51.8904 59.3762 52.1179 59.1766 52.3097C58.9615 52.5171 58.7171 52.6904 58.4509 52.825C58.4122 52.8451 58.3704 52.8544 58.3256 52.8544ZM60.4099 49.9609C58.601 50.8506 58.1445 51.6181 57.9217 52.3144C57.8737 52.4861 57.9681 52.6595 58.0826 52.7538C58.2002 52.8513 58.338 52.8776 58.4509 52.8219C59.6424 52.22 60.1236 50.9775 60.4099 49.9609Z" fill="white"/>
<path fill-rule="evenodd" clip-rule="evenodd" d="M56.7764 54.7632C56.6031 54.9675 56.1899 54.8128 56.1528 54.5327C56.0785 53.79 56.2704 52.9776 57.369 51.6855C57.5222 52.8043 57.4928 53.9014 56.7764 54.7632Z" fill="white"/>
<path d="M56.559 54.8599C56.5218 54.8599 56.4832 54.8537 56.4445 54.8429C56.3145 54.8042 56.1721 54.6943 56.1505 54.5334C56.1087 54.111 56.1613 53.7226 56.3191 53.3157C56.5064 52.8282 56.8499 52.2944 57.3667 51.6847L57.3698 51.6816V51.6847C57.4595 52.3377 57.4688 52.8576 57.3992 53.3203C57.3141 53.8897 57.1114 54.3617 56.7772 54.764C56.7245 54.8274 56.6472 54.8599 56.559 54.8599ZM57.3667 51.6894C56.1892 53.0758 56.0886 53.8758 56.1536 54.5334C56.1752 54.6928 56.316 54.8011 56.4445 54.8398C56.5775 54.8785 56.7013 54.8506 56.7741 54.764C57.5446 53.8356 57.4951 52.6348 57.3667 51.6894Z" fill="white"/>
<path fill-rule="evenodd" clip-rule="evenodd" d="M55.1306 56.6983C54.9402 56.915 54.4714 56.7556 54.4219 56.4616C54.3197 55.6817 54.5163 54.826 55.7201 53.4551C55.9197 54.6326 55.9151 55.7838 55.1306 56.6983Z" fill="white"/>
<path d="M54.882 56.8012C54.8386 56.8012 54.7938 56.795 54.7473 56.7811C54.6669 56.7579 54.5911 56.7161 54.5338 56.6635C54.4719 56.6062 54.4317 56.5366 54.4193 56.4623C54.3621 56.0182 54.4116 55.6113 54.5787 55.1796C54.7783 54.6643 55.1512 54.0995 55.7175 53.4543L55.7191 53.4512V53.4543C55.8367 54.1397 55.8599 54.686 55.7934 55.1734C55.7547 55.4596 55.6835 55.7273 55.5798 55.9703C55.4684 56.2333 55.3168 56.4778 55.128 56.6975C55.0723 56.7672 54.9825 56.8012 54.882 56.8012ZM55.7175 53.4605C54.427 54.9304 54.3311 55.7722 54.4224 56.4623C54.4472 56.6047 54.574 56.7285 54.7489 56.778C54.9021 56.8213 55.0475 56.7904 55.1295 56.6975C55.9713 55.7165 55.8862 54.4523 55.7175 53.4605Z" fill="white"/>
<path fill-rule="evenodd" clip-rule="evenodd" d="M54.2548 58.7146C53.9732 58.6883 53.8649 58.1901 54.0892 57.9642C54.7004 57.3916 55.5314 57.0249 57.3217 57.1936C56.4242 58.0957 55.4401 58.8106 54.2548 58.7146Z" fill="white"/>
<path d="M54.4678 58.7241C54.3982 58.7241 54.327 58.721 54.2574 58.7164H54.2558C54.1444 58.7055 54.0516 58.6204 54.002 58.4827C53.9463 58.3295 53.951 58.1021 54.0902 57.9628C54.4384 57.6363 54.8113 57.4259 55.2647 57.299C55.8063 57.1474 56.4794 57.1118 57.3242 57.1922H57.3273L57.3242 57.1953C56.7997 57.723 56.3463 58.0835 55.8976 58.3311C55.6345 58.4765 55.3684 58.5833 55.1084 58.6467C54.898 58.6978 54.6829 58.7241 54.4678 58.7241ZM54.2543 58.7133C54.3254 58.7195 54.3951 58.7226 54.4647 58.7226C55.6422 58.7226 56.6031 57.9148 57.318 57.1953C55.3978 57.0143 54.6318 57.4584 54.0902 57.9659C53.9525 58.1036 53.9479 58.3311 54.002 58.4827C54.0531 58.6173 54.1444 58.7009 54.2543 58.7133Z" fill="white"/>
<path fill-rule="evenodd" clip-rule="evenodd" d="M52.0548 60.3156C51.7825 60.2599 51.7175 59.8049 51.9542 59.6316C52.5948 59.1937 53.4304 58.9632 55.1572 59.3191C54.2118 60.0185 53.1983 60.5384 52.0548 60.3156Z" fill="white"/>
<path d="M52.5929 60.3708C52.4134 60.3708 52.2339 60.3537 52.0544 60.3181C51.9384 60.2934 51.8486 60.1944 51.8177 60.052C51.7867 59.9143 51.8177 59.7301 51.9523 59.6311C52.3175 59.382 52.6966 59.2381 53.1468 59.1777C53.6853 59.105 54.343 59.1514 55.1553 59.3201H55.1584L55.1553 59.3216C54.6045 59.7286 54.1341 59.9963 53.6776 60.1649C53.3078 60.3027 52.9488 60.3708 52.5929 60.3708ZM52.0544 60.315C53.283 60.5533 54.3553 59.9096 55.1522 59.3216C54.5534 59.1978 54.0675 59.1468 53.6637 59.1468C52.8188 59.1468 52.3391 59.3712 51.9554 59.6342C51.8223 59.7332 51.7914 59.9143 51.8223 60.052C51.8517 60.1928 51.9384 60.2918 52.0544 60.315Z" fill="white"/>
<path fill-rule="evenodd" clip-rule="evenodd" d="M53.0865 58.7621C52.8822 58.9555 52.4551 58.7559 52.4397 58.4635C52.4304 57.6914 52.7105 56.8759 54.0056 55.6504C54.0675 56.8186 53.9344 57.9436 53.0865 58.7621Z" fill="white"/>
<path d="M52.8807 58.8402C52.8281 58.8402 52.7724 58.8294 52.7167 58.8062C52.6424 58.7768 52.5759 58.7288 52.5264 58.6716C52.4738 58.6097 52.4428 58.5369 52.4397 58.4642C52.4335 58.0248 52.5279 57.6317 52.7337 57.2263C52.9798 56.742 53.396 56.2267 54.0072 55.6496L54.0103 55.6465V55.6496C54.0459 56.3304 54.0072 56.8658 53.8896 57.3362C53.7457 57.9134 53.4842 58.3791 53.0896 58.7613C53.0355 58.8139 52.9612 58.8402 52.8807 58.8402ZM54.0057 55.6542C52.6161 56.9679 52.4336 57.7803 52.4428 58.4627C52.4506 58.605 52.5573 58.7381 52.7183 58.8015C52.8591 58.8573 52.9999 58.8418 53.0865 58.7582C53.9964 57.8809 54.0567 56.6399 54.0057 55.6542Z" fill="white"/>
<path fill-rule="evenodd" clip-rule="evenodd" d="M50.9242 60.3145C50.706 60.4754 50.3161 60.2433 50.3346 59.9679C50.4104 59.2406 50.7694 58.5025 52.1528 57.4844C52.08 58.5876 51.8278 59.6321 50.9242 60.3145Z" fill="white"/>
<path d="M50.753 60.3674C50.688 60.3674 50.6184 60.3489 50.5518 60.3117C50.4095 60.2328 50.3228 60.0982 50.3306 59.9651C50.3739 59.552 50.5069 59.1914 50.7499 58.8309C51.0408 58.4007 51.4973 57.9597 52.1487 57.4801L52.1518 57.4785V57.4816C52.11 58.1253 52.0141 58.6251 51.8501 59.0553C51.6489 59.5829 51.3456 59.9945 50.9232 60.3133C50.8752 60.3489 50.8164 60.3674 50.753 60.3674ZM52.1487 57.4863C50.6679 58.5787 50.4017 59.323 50.3352 59.9667C50.3259 60.0966 50.4126 60.2313 50.5534 60.3102C50.6849 60.3829 50.8257 60.3829 50.9216 60.3133C51.8934 59.5783 52.0884 58.4178 52.1487 57.4863Z" fill="white"/>
<path fill-rule="evenodd" clip-rule="evenodd" d="M49.6319 62.268C49.1523 62.2262 49.16 61.6243 49.3658 61.4247C50.0172 60.8614 51.1298 60.4994 52.7715 60.7082C51.9654 61.5732 50.7894 62.4212 49.6319 62.268Z" fill="white"/>
<path d="M49.9102 62.2886C49.8158 62.2886 49.723 62.2824 49.6317 62.27C49.4522 62.2545 49.3207 62.1555 49.2619 61.9915C49.1938 61.7996 49.2402 61.5458 49.364 61.4251C49.7153 61.1219 50.1624 60.9037 50.6963 60.7768C51.2998 60.6329 51.9976 60.6097 52.7713 60.7087H52.7744L52.7728 60.7118C52.4541 61.0538 51.9466 61.5319 51.3338 61.8723C50.8386 62.1478 50.3621 62.2886 49.9102 62.2886ZM51.8816 60.653C50.8309 60.653 49.9566 60.9192 49.3671 61.4267C49.2433 61.5458 49.1984 61.7981 49.2665 61.9899C49.3238 62.1524 49.4538 62.2514 49.6333 62.2669C49.7261 62.2793 49.8174 62.2855 49.9087 62.2855C51.1574 62.2855 52.3086 61.2054 52.7697 60.7118C52.4618 60.6716 52.1663 60.653 51.8816 60.653Z" fill="white"/>
<path fill-rule="evenodd" clip-rule="evenodd" d="M48.9416 61.76C48.7605 61.9147 48.4201 61.7197 48.4279 61.4691C48.4696 60.8068 48.7528 60.1229 49.8994 59.1465C49.8731 60.1507 49.6905 61.107 48.9416 61.76Z" fill="white"/>
<path d="M48.7849 61.816C48.7369 61.816 48.6874 61.8036 48.6379 61.7804C48.5296 61.7278 48.4213 61.6118 48.4259 61.4679C48.4491 61.0903 48.5513 60.7592 48.7478 60.4234C48.9814 60.0226 49.3574 59.6033 49.899 59.1437L49.9021 59.1406V59.1437C49.8866 59.7286 49.8216 60.1866 49.6948 60.5828C49.54 61.0686 49.294 61.4539 48.9443 61.7588L48.9412 61.7618C48.8963 61.7974 48.8422 61.816 48.7849 61.816ZM49.8959 59.1499C48.6673 60.1975 48.4646 60.883 48.4275 61.4694C48.4228 61.6102 48.5296 61.7263 48.6379 61.7773C48.7493 61.8315 48.8623 61.8237 48.9396 61.7572L48.9412 61.7557C49.7458 61.0563 49.8743 59.9963 49.8959 59.1499Z" fill="white"/>
<path fill-rule="evenodd" clip-rule="evenodd" d="M33.648 65.9793C37.1883 65.6357 40.6993 65.4655 44.43 64.0172C44.9932 63.7511 45.6771 63.6752 46.4771 63.7913C47.3436 63.8795 48.3525 63.3627 49.366 62.8273C48.6929 62.5054 47.927 62.2563 46.0485 63.2791C45.7297 63.4416 45.4234 63.0609 45.9804 62.9016C47.4179 62.476 47.7815 61.6405 47.9935 60.7461C46.2187 61.1995 45.5874 62.6199 44.8771 63.143C41.2733 65.139 36.2475 65.3557 33.6186 65.5893C33.3926 65.6017 33.4159 65.9932 33.648 65.9793Z" fill="white"/>
<path d="M33.6353 65.9804C33.578 65.9804 33.5285 65.9541 33.496 65.9061C33.4527 65.8411 33.4465 65.7467 33.4821 65.6771C33.5099 65.623 33.5579 65.5905 33.6198 65.5874C33.8813 65.5642 34.1691 65.541 34.474 65.5162C37.1524 65.2996 41.6351 64.9375 44.8784 63.141C45.0919 62.9832 45.2962 62.748 45.5329 62.4741C45.8022 62.1615 46.1085 61.8087 46.5016 61.4931C46.9549 61.1294 47.4439 60.8834 47.9948 60.7441H47.9979V60.7472C47.9035 61.1449 47.7642 61.606 47.4501 62.0021C47.1221 62.4137 46.6424 62.7093 45.9832 62.9043C45.7418 62.9739 45.6877 63.0745 45.6784 63.1286C45.6691 63.1812 45.6908 63.2338 45.7418 63.271C45.8022 63.3158 45.9198 63.3452 46.0513 63.2787C46.9023 62.8145 47.5925 62.5762 48.1634 62.5484C48.6849 62.5221 49.0454 62.6722 49.3704 62.8269L49.3735 62.8284L49.3704 62.83C48.8319 63.1147 48.3476 63.3654 47.871 63.5464C47.3263 63.7538 46.8714 63.8342 46.4799 63.794C45.683 63.6795 44.9944 63.7553 44.4328 64.0199C43.642 64.3263 42.8452 64.5847 41.9972 64.8075C41.2406 65.0056 40.4591 65.1727 39.6096 65.315C38.0298 65.5812 36.4453 65.7251 34.9134 65.8659C34.4987 65.903 34.0716 65.9433 33.6508 65.9835C33.643 65.9804 33.6399 65.9804 33.6353 65.9804ZM47.9917 60.7472C46.7538 61.0644 46.0776 61.8474 45.5345 62.4756C45.2977 62.7495 45.0935 62.9847 44.8799 63.1425C44.1202 63.5634 43.2444 63.9317 42.2742 64.2412C41.4371 64.5073 40.504 64.7348 39.4967 64.9205C37.646 65.2624 35.8882 65.4032 34.474 65.5177C34.1691 65.5425 33.8813 65.5657 33.6198 65.5889C33.5595 65.592 33.5115 65.623 33.4852 65.6771C33.4511 65.7452 33.4558 65.838 33.4991 65.903C33.5332 65.9541 33.5858 65.9804 33.6477 65.9758C34.0685 65.9355 34.4972 65.8953 34.9119 65.8582C37.9756 65.5781 41.1431 65.2903 44.4312 64.0137C44.7113 63.8806 45.0269 63.7955 45.3658 63.7568C45.7062 63.7197 46.0807 63.729 46.4784 63.7862C47.3712 63.8775 48.4296 63.3189 49.3642 62.8238C48.6663 62.4911 47.8865 62.2776 46.0513 63.2772C45.9182 63.3452 45.8006 63.3143 45.7387 63.2694C45.6877 63.2323 45.6644 63.1781 45.6753 63.124C45.6861 63.0698 45.7387 62.9677 45.9832 62.8981C47.4702 62.4586 47.7998 61.558 47.9917 60.7472Z" fill="white"/>
<path fill-rule="evenodd" clip-rule="evenodd" d="M33.9364 64.6653C33.7677 64.5214 33.8961 64.1809 34.1282 64.15C34.7425 64.0896 35.4126 64.249 36.4802 65.1573C35.5534 65.2811 34.6482 65.2563 33.9364 64.6653Z" fill="white"/>
<path d="M35.6648 65.2186C35.4729 65.2186 35.295 65.2062 35.1263 65.1815C34.6559 65.1118 34.266 64.9432 33.9333 64.6662C33.8606 64.6043 33.8373 64.5006 33.8698 64.3892C33.9023 64.2809 33.9921 64.1649 34.1252 64.1478C34.4749 64.1138 34.7952 64.1571 35.1325 64.2887C35.5363 64.4434 35.9758 64.7281 36.4787 65.1552L36.4818 65.1583H36.4787C36.177 65.1985 35.9093 65.2186 35.6648 65.2186ZM33.9364 64.6631C34.7008 65.2991 35.6942 65.2604 36.4756 65.1536C35.3306 64.1803 34.6698 64.0968 34.1267 64.1494C33.9967 64.1664 33.9054 64.2825 33.8745 64.3892C33.842 64.4991 33.8652 64.6028 33.9364 64.6631Z" fill="white"/>
<path fill-rule="evenodd" clip-rule="evenodd" d="M36.7073 64.4512C36.5231 64.3289 36.6098 63.9746 36.8357 63.9158C37.4376 63.7827 38.1231 63.8616 39.2914 64.6369C38.3862 64.8721 37.484 64.9541 36.7073 64.4512Z" fill="white"/>
<path d="M38.0462 64.8236C38.0138 64.8236 37.9828 64.8236 37.9519 64.8221C37.4768 64.8081 37.0699 64.6874 36.7062 64.4522C36.6273 64.3996 36.5917 64.299 36.6103 64.1845C36.6289 64.0731 36.7062 63.9478 36.8347 63.9138C37.1782 63.8379 37.5 63.8441 37.8513 63.9339C38.2706 64.0406 38.741 64.2696 39.2919 64.6348L39.295 64.6364L39.2919 64.6379C38.806 64.7632 38.4083 64.8236 38.0462 64.8236ZM36.7078 64.4491C37.5418 64.9892 38.5244 64.8329 39.2872 64.6348C38.0354 63.8054 37.3685 63.7992 36.8362 63.9168C36.7078 63.9493 36.632 64.0747 36.6134 64.1845C36.5948 64.299 36.6304 64.3981 36.7078 64.4491Z" fill="white"/>
<path fill-rule="evenodd" clip-rule="evenodd" d="M39.2095 63.7211C38.996 63.5788 39.0966 63.1687 39.3581 63.1022C40.0559 62.9475 40.8482 63.0388 42.2006 63.9362C41.1546 64.207 40.1101 64.303 39.2095 63.7211Z" fill="white"/>
<path d="M40.7604 64.1521C40.7232 64.1521 40.6861 64.1521 40.6505 64.1505C40.0997 64.1351 39.6293 63.9943 39.2099 63.7219C39.1186 63.6616 39.0768 63.5455 39.1001 63.4124C39.1217 63.284 39.2099 63.1386 39.36 63.0999C39.7577 63.0117 40.1306 63.0194 40.536 63.1231C41.0203 63.2469 41.5665 63.5115 42.2041 63.9355L42.2072 63.937L42.2041 63.9385C41.6408 64.084 41.1797 64.1521 40.7604 64.1521ZM39.2115 63.7204C40.1786 64.347 41.3143 64.1645 42.1979 63.9355C40.748 62.9745 39.9774 62.9668 39.36 63.103C39.2115 63.1401 39.1233 63.2856 39.1032 63.4124C39.0799 63.5455 39.1217 63.66 39.2115 63.7204Z" fill="white"/>
<path fill-rule="evenodd" clip-rule="evenodd" d="M34.0441 63.887C33.7857 63.8994 33.6232 63.5048 33.7965 63.2944C34.2731 62.7528 34.971 62.3551 36.6065 62.2793C35.9164 63.1257 35.1226 63.8267 34.0441 63.887Z" fill="white"/>
<path d="M34.0326 63.8901C33.9258 63.8901 33.8283 63.822 33.7695 63.7044C33.7107 63.5868 33.6952 63.4151 33.7943 63.2944C34.0651 62.9864 34.373 62.7698 34.7645 62.612C35.2318 62.4232 35.8337 62.3149 36.6043 62.2793H36.6074L36.6043 62.2824C36.202 62.776 35.8414 63.1242 35.4685 63.3795C35.0105 63.6936 34.5447 63.8607 34.0403 63.8901C34.0388 63.8901 34.0357 63.8901 34.0326 63.8901ZM36.6012 62.2824C34.848 62.3644 34.2167 62.8178 33.7958 63.2959C33.6983 63.4151 33.7123 63.5853 33.7711 63.7013C33.8299 63.8174 33.9258 63.8855 34.031 63.8855C34.0341 63.8855 34.0388 63.8855 34.0419 63.8855C35.2024 63.8205 36.0194 62.9942 36.6012 62.2824Z" fill="white"/>
<path fill-rule="evenodd" clip-rule="evenodd" d="M37.0018 63.5706C36.7588 63.6139 36.5561 63.2627 36.6923 63.0414C37.0745 62.4689 37.6841 62.0031 39.2222 61.7246C38.6776 62.6128 38.0153 63.3756 37.0018 63.5706Z" fill="white"/>
<path d="M36.9601 63.5768C36.8703 63.5768 36.7821 63.5242 36.7187 63.4313C36.6491 63.3277 36.6119 63.1667 36.6908 63.0414C36.9075 62.7165 37.1721 62.472 37.5233 62.2724C37.9426 62.0341 38.4981 61.8561 39.2223 61.7246H39.2254L39.2239 61.7277C38.9051 62.2445 38.608 62.6205 38.2877 62.9099C37.8947 63.2658 37.4738 63.4824 37.0018 63.5737C36.9879 63.5752 36.974 63.5768 36.9601 63.5768ZM39.2192 61.7277C37.5713 62.0263 37.0312 62.537 36.6939 63.043C36.6166 63.1683 36.6521 63.3277 36.7218 63.4298C36.7945 63.5366 36.8982 63.5876 37.0018 63.5691C38.0912 63.3602 38.7596 62.4751 39.2192 61.7277Z" fill="white"/>
<path fill-rule="evenodd" clip-rule="evenodd" d="M39.5937 62.784C39.3662 62.7994 39.213 62.4544 39.3616 62.264C39.7716 61.7751 40.3813 61.4068 41.8265 61.3047C41.2354 62.0691 40.5484 62.7066 39.5937 62.784Z" fill="white"/>
<path d="M39.5782 62.7871C39.4853 62.7871 39.4002 62.7283 39.346 62.6277C39.2919 62.5256 39.2749 62.3724 39.36 62.264C39.5936 61.9855 39.8613 61.7875 40.2048 61.6389C40.6149 61.4625 41.1456 61.3527 41.8265 61.3047H41.8296L41.828 61.3078C41.483 61.7534 41.1704 62.0691 40.847 62.3043C40.4493 62.5921 40.0393 62.7499 39.5936 62.7871C39.589 62.7855 39.5843 62.7871 39.5782 62.7871ZM41.8234 61.3078C40.2745 61.4176 39.7251 61.8339 39.3631 62.2656C39.2795 62.3724 39.2965 62.524 39.3491 62.6246C39.4048 62.7298 39.4961 62.7886 39.5936 62.7809C40.618 62.6989 41.3236 61.9515 41.8234 61.3078Z" fill="white"/>
<path fill-rule="evenodd" clip-rule="evenodd" d="M41.8691 62.6687C41.6416 62.6842 41.4884 62.3391 41.637 62.1488C42.047 61.6599 42.6567 61.2916 44.1019 61.1895C43.5108 61.9523 42.8238 62.5898 41.8691 62.6687Z" fill="white"/>
<path d="M41.8535 62.6699C41.7607 62.6699 41.6756 62.6111 41.6214 62.5105C41.5673 62.4084 41.5503 62.2552 41.6354 62.1469C41.869 61.8683 42.1367 61.6703 42.4802 61.5217C42.8903 61.3453 43.421 61.2355 44.1019 61.1875H44.1049L44.1034 61.1906C43.7583 61.6362 43.4458 61.9519 43.1224 62.1871C42.7247 62.4749 42.3147 62.6327 41.869 62.6699C41.8644 62.6699 41.8597 62.6699 41.8535 62.6699ZM44.0988 61.1921C42.5499 61.302 42.0005 61.7182 41.6385 62.15C41.5549 62.2567 41.5719 62.4084 41.6245 62.509C41.6802 62.6142 41.7715 62.673 41.8675 62.6652C42.8934 62.5832 43.599 61.8343 44.0988 61.1921Z" fill="white"/>
<path fill-rule="evenodd" clip-rule="evenodd" d="M33.1374 7.16797L15.2422 15.9956L51.8914 15.9121L33.1374 7.16797Z" fill="white"/>
<path d="M15.2431 16.2383L15.1348 15.7772L33.1336 6.89844L51.9944 15.6921L51.8923 16.1563L15.2431 16.2383ZM33.1398 7.43692L16.2906 15.7493L50.7998 15.672L33.1398 7.43692Z" fill="white"/>
<path fill-rule="evenodd" clip-rule="evenodd" d="M44.0065 40.311C39.8766 40.164 35.5951 39.9892 33.5139 42.5299C31.0164 39.7478 26.5213 40.5833 23.0212 40.5323C21.7354 43.6022 20.448 46.5608 19.1621 49.6323C23.7222 51.0729 28.2822 52.5522 32.8423 54.4508C33.1874 54.4539 33.4953 54.4554 33.8404 54.4585C37.7939 52.8864 42.9543 51.1363 47.8114 49.6308C46.524 46.5623 45.2924 43.381 44.0065 40.311ZM32.9135 53.2315C29.2524 50.7897 25.0483 50.013 19.9745 49.2362C21.1164 46.5175 22.2584 43.7988 23.3988 41.0801C29.8451 40.7551 31.982 41.5876 32.9119 42.745C32.9135 46.2405 32.9135 49.736 32.9135 53.2315ZM33.9966 42.8456C34.9498 41.6696 37.1409 40.6004 43.7496 40.9315C44.9194 43.6966 46.0908 46.4602 47.2606 49.2253C42.0599 49.8876 37.7474 50.6365 33.9966 53.2872C33.9966 49.7329 33.9966 46.3999 33.9966 42.8456Z" fill="white"/>
</g>
<path d="M91.2805 19.3887V28.0771L92.3475 28.1533L92.2713 32.6499H90.4421L90.2897 29.9824H84.1164L83.9639 32.6499H82.1348L82.0586 28.1533L82.9732 28.0771C83.4304 27.3149 83.7353 26.5528 83.9639 25.7144C84.2688 24.6474 84.345 23.5042 84.345 22.2086V19.3887H91.2805ZM86.5552 22.7421C86.5552 23.9615 86.4028 25.1809 86.0979 26.2479C85.9455 26.8576 85.6407 27.5436 85.412 28.0771H88.9178V21.3702H86.5552V22.7421Z" fill="white"/>
<path d="M103.551 24.5713C103.551 28.0772 101.493 30.135 98.368 30.135C95.2432 30.135 93.4141 27.7723 93.4141 24.7238C93.4141 21.5228 95.4718 19.1602 98.5966 19.1602C101.798 19.1602 103.551 21.599 103.551 24.5713ZM95.9291 24.7238C95.9291 26.7815 96.9199 28.3058 98.5204 28.3058C100.121 28.3058 101.035 26.7815 101.035 24.7238C101.035 22.8184 100.121 21.1417 98.5204 21.1417C96.8437 21.0655 95.9291 22.666 95.9291 24.7238Z" fill="white"/>
<path d="M107.82 19.3887V23.428H111.783V19.3887H114.145V29.9824H111.783V25.562H107.82V29.9824H105.457V19.3887H107.82Z" fill="white"/>
<path d="M124.358 29.6757C123.901 29.9044 122.91 30.133 121.691 30.133C118.032 30.133 116.127 27.8466 116.127 24.798C116.127 21.216 118.718 19.1582 121.919 19.1582C123.139 19.1582 124.129 19.3868 124.51 19.6155L123.977 21.5208C123.52 21.2922 122.834 21.1398 121.995 21.1398C120.09 21.1398 118.642 22.283 118.642 24.6456C118.642 26.7796 119.938 28.0752 121.995 28.0752C122.758 28.0752 123.52 27.9228 123.977 27.6942L124.358 29.6757Z" fill="white"/>
<path d="M128.626 19.3887V23.8091H128.855L131.751 19.3887H134.647L130.989 24.1139C132.361 24.4188 132.97 25.4096 133.428 26.629C133.809 27.7722 134.114 28.9154 134.647 29.9824H132.056C131.675 29.2965 131.522 28.4581 131.218 27.6198C130.837 26.4004 130.379 25.4858 129.084 25.4858H128.626V29.9062H126.264V19.3887H128.626Z" fill="white"/>
<path d="M145.468 24.5694C145.468 28.0752 143.411 30.133 140.286 30.133C137.161 30.133 135.332 27.7704 135.332 24.7218C135.332 21.5208 137.39 19.1582 140.515 19.1582C143.716 19.1582 145.468 21.597 145.468 24.5694ZM137.847 24.7218C137.847 26.7796 138.838 28.3039 140.438 28.3039C142.039 28.3039 142.953 26.7796 142.953 24.7218C142.953 22.8165 142.039 21.1398 140.438 21.1398C138.762 21.0636 137.847 22.664 137.847 24.7218Z" fill="white"/>
<path d="M149.583 19.3881V22.5128C149.583 24.1895 149.507 25.8662 149.431 27.3143H149.507C150.041 26.0949 150.803 24.6468 151.412 23.5036L153.699 19.3119H156.138V29.9056H153.927V26.7808C153.927 25.1803 153.927 23.7323 154.08 22.2842H154.004C153.546 23.5798 152.86 24.9517 152.175 26.0949L150.041 29.9056H147.297V19.3881H149.583ZM151.031 16.9492C151.031 17.5589 151.26 17.94 151.717 17.94C152.175 17.94 152.403 17.5589 152.403 16.9492H154.004C153.927 18.3211 153.013 18.8546 151.641 18.8546C150.269 18.8546 149.507 18.2449 149.355 16.9492H151.031Z" fill="white"/>
<path d="M167.492 19.3887V21.3702H163.452V29.9824H161.09V19.3887H167.492Z" fill="white"/>
<path d="M178.24 24.5694C178.24 28.0752 176.182 30.133 173.057 30.133C169.933 30.133 168.104 27.7704 168.104 24.7218C168.104 21.5208 170.161 19.1582 173.286 19.1582C176.487 19.1582 178.24 21.597 178.24 24.5694ZM170.619 24.7218C170.619 26.7796 171.609 28.3039 173.21 28.3039C174.81 28.3039 175.725 26.7796 175.725 24.7218C175.725 22.8165 174.81 21.1398 173.21 21.1398C171.533 21.0636 170.619 22.664 170.619 24.7218Z" fill="white"/>
<path d="M187.919 29.6757C187.461 29.9044 186.471 30.133 185.251 30.133C181.593 30.133 179.688 27.8466 179.688 24.798C179.688 21.216 182.279 19.1582 185.48 19.1582C186.699 19.1582 187.69 19.3868 188.071 19.6155L187.538 21.5208C187.08 21.2922 186.394 21.1398 185.556 21.1398C183.651 21.1398 182.203 22.283 182.203 24.6456C182.203 26.7796 183.498 28.0752 185.556 28.0752C186.318 28.0752 187.08 27.9228 187.538 27.6942L187.919 29.6757Z" fill="white"/>
<path d="M191.73 19.3887L193.254 23.1994C193.559 23.9616 193.788 24.5713 194.016 25.2572H194.093C194.245 24.7999 194.398 24.114 194.626 23.1994L195.769 19.3887H198.284L196.303 24.6475C195.693 26.248 195.007 27.8485 194.245 28.8392C193.559 29.6776 192.645 30.2111 191.425 30.2111C190.892 30.2111 190.587 30.1349 190.282 30.0587L190.434 28.1533C190.663 28.2295 190.892 28.2295 191.197 28.2295C191.959 28.2295 192.416 27.696 192.645 27.2388C192.721 27.0863 192.645 26.9339 192.568 26.7053L188.986 19.3125H191.73V19.3887Z" fill="white"/>
<path d="M207.126 19.3887V28.0771L208.193 28.1533L208.117 32.6499H206.288L206.135 29.9824H199.962L199.81 32.6499H197.981L197.904 28.1533L198.819 28.0771C199.276 27.3149 199.581 26.5528 199.81 25.7144C200.115 24.6474 200.191 23.5042 200.191 22.2086V19.3887H207.126ZM202.477 22.7421C202.477 23.9615 202.325 25.1809 202.02 26.2479C201.867 26.8576 201.563 27.5436 201.334 28.0771H204.84V21.3702H202.477V22.7421Z" fill="white"/>
<path d="M212.459 27.2387L211.697 29.9824H209.258L212.459 19.3887H215.584L218.861 29.9824H216.269L215.431 27.2387H212.459ZM215.126 25.4858L214.44 23.1994C214.288 22.5897 214.059 21.7513 213.907 21.1416C213.754 21.7513 213.602 22.5897 213.45 23.1994L212.84 25.4858H215.126Z" fill="white"/>
<path d="M220.615 19.5411C221.377 19.3887 222.368 19.3125 223.816 19.3125C225.264 19.3125 226.331 19.6174 227.017 20.1509C227.703 20.6844 228.16 21.5989 228.16 22.5897C228.16 23.6567 227.856 24.495 227.17 25.1048C226.331 25.8669 225.112 26.248 223.74 26.248C223.435 26.248 223.13 26.248 222.902 26.1718V29.9825H220.539V19.5411H220.615ZM222.978 24.3426C223.207 24.4188 223.435 24.4188 223.816 24.4188C225.112 24.4188 225.874 23.8091 225.874 22.7421C225.874 21.7513 225.188 21.2178 223.969 21.2178C223.511 21.2178 223.13 21.2178 222.978 21.2941V24.3426Z" fill="white"/>
<path d="M237.764 29.6757C237.307 29.9044 236.316 30.133 235.097 30.133C231.439 30.133 229.533 27.8466 229.533 24.798C229.533 21.216 232.124 19.1582 235.325 19.1582C236.545 19.1582 237.536 19.3868 237.917 19.6155L237.383 21.5208C236.926 21.2922 236.24 21.1398 235.402 21.1398C233.496 21.1398 232.048 22.283 232.048 24.6456C232.048 26.7796 233.344 28.0752 235.402 28.0752C236.164 28.0752 236.926 27.9228 237.383 27.6942L237.764 29.6757Z" fill="white"/>
<path d="M242.031 21.3702H239.135V19.3887H247.29V21.3702H244.394V29.9824H242.031V21.3702Z" fill="white"/>
<path d="M248.891 19.5411C249.5 19.4649 250.796 19.3125 252.015 19.3125C253.463 19.3125 254.378 19.4649 255.14 19.9222C255.902 20.3033 256.436 21.0654 256.436 21.98C256.436 22.8946 255.902 23.8091 254.683 24.2664C255.902 24.5713 256.817 25.4858 256.817 26.8577C256.817 27.8485 256.36 28.6106 255.75 29.1441C254.988 29.7538 253.692 30.1349 251.558 30.1349C250.415 30.1349 249.5 30.0587 248.967 29.9825V19.5411H248.891ZM251.253 23.5805H252.015C253.311 23.5805 253.921 23.047 253.921 22.2848C253.921 21.4465 253.311 21.0654 252.244 21.0654C251.711 21.0654 251.406 21.0654 251.253 21.1416V23.5805ZM251.253 28.3057C251.482 28.3057 251.787 28.3057 252.168 28.3057C253.235 28.3057 254.226 27.8485 254.226 26.7815C254.226 25.7145 253.235 25.3334 252.092 25.3334H251.253V28.3057Z" fill="white"/>
<path d="M265.048 25.4858H261.161V28.0008H265.506V29.9824H258.723V19.3887H265.277V21.3702H261.161V23.5804H265.048V25.4858Z" fill="white"/>
<path d="M269.851 19.3887V23.428H273.814V19.3887H276.177V29.9824H273.814V25.562H269.851V29.9824H267.488V19.3887H269.851Z" fill="white"/>
<path d="M280.978 19.3887V23.428H284.941V19.3887H287.304V29.9824H284.941V25.562H280.978V29.9824H278.615V19.3887H280.978Z" fill="white"/>
<path d="M292.105 19.3887V23.0469C292.41 22.9707 292.867 22.9707 293.248 22.9707C295.458 22.9707 297.44 24.0377 297.44 26.4766C297.44 27.4674 297.135 28.2295 296.601 28.763C295.611 29.83 293.782 30.1348 292.257 30.1348C291.114 30.1348 290.2 30.0586 289.666 29.9824V19.3887H292.105ZM292.105 28.2295C292.257 28.3057 292.562 28.3057 292.943 28.3057C294.01 28.3057 295.001 27.696 295.001 26.5528C295.001 25.3334 293.858 24.8761 292.943 24.8761C292.638 24.8761 292.334 24.8761 292.105 24.9523V28.2295ZM300.869 19.3887V29.9824H298.507V19.3887H300.869Z" fill="white"/>
<path d="M305.595 19.3881V22.5128C305.595 24.1895 305.519 25.8662 305.443 27.3143H305.519C306.052 26.0949 306.814 24.6468 307.424 23.5036L309.711 19.3119H312.149V29.9056H309.939V26.7808C309.939 25.1803 309.939 23.7323 310.092 22.2842H310.015C309.558 23.5798 308.872 24.9517 308.186 26.0949L306.052 29.9056H303.309V19.3881H305.595ZM307.043 16.9492C307.043 17.5589 307.272 17.94 307.729 17.94C308.186 17.94 308.415 17.5589 308.415 16.9492H310.015C309.939 18.3211 309.025 18.8546 307.653 18.8546C306.281 18.8546 305.519 18.2449 305.366 16.9492H307.043Z" fill="white"/>
<path d="M84.8785 40.2707H81.9824V38.2129H90.1373V40.1945H87.2412V48.8066H84.8785V40.2707Z" fill="white"/>
<path d="M98.064 44.3862H94.1771V46.9013H98.5213V48.8828H91.7383V38.2129H98.2927V40.1945H94.1771V42.4047H98.064V44.3862Z" fill="white"/>
<path d="M106.066 48.8066L105.075 46.9013C104.694 46.1391 104.466 45.6056 104.161 44.9959C103.932 45.6056 103.703 46.1391 103.322 46.9013L102.484 48.8066H99.6641L102.713 43.4717L99.8165 38.2129H102.56L103.475 40.1182C103.78 40.728 104.008 41.2614 104.313 41.8712C104.542 41.1852 104.77 40.728 104.999 40.1182L105.914 38.2129H108.657L105.685 43.3954L108.81 48.8066H106.066Z" fill="white"/>
<path d="M112.849 38.2129V42.2522H116.812V38.2129H119.175V48.8066H116.812V44.3862H112.849V48.8066H110.486V38.2129H112.849Z" fill="white"/>
<path d="M123.749 38.211V41.3357C123.749 43.0125 123.673 44.6892 123.597 46.1372H123.673C124.207 44.9178 124.969 43.4697 125.578 42.3265L127.865 38.1348H130.304V48.7285H128.094V45.6037C128.094 44.0032 128.094 42.5552 128.246 41.1071H128.17C127.712 42.4027 127.027 43.7746 126.341 44.9178L124.207 48.7285H121.463V38.211H123.749Z" fill="white"/>
<path d="M134.874 38.2129V41.3377C134.874 42.5571 135.56 43.1668 136.627 43.1668C137.161 43.1668 137.694 43.0144 138.152 42.7857V38.2129H140.514V48.9591H138.152V44.5386H138.075C137.313 44.9197 136.551 45.0721 135.713 45.0721C133.807 45.0721 132.436 44.0814 132.436 41.7949V38.2129H134.874Z" fill="white"/>
<path d="M149.279 44.3862H145.392V46.9013H149.736V48.8828H142.953V38.2129H149.508V40.1945H145.392V42.4047H149.279V44.3862Z" fill="white"/>
<path d="M159.493 48.5761C159.036 48.8048 158.045 49.0334 156.825 49.0334C153.167 49.0334 151.262 46.747 151.262 43.6984C151.262 40.1164 153.853 38.0586 157.054 38.0586C158.273 38.0586 159.264 38.2872 159.645 38.5159L159.112 40.4212C158.654 40.1926 157.969 40.0402 157.13 40.0402C155.225 40.0402 153.777 41.1834 153.777 43.546C153.777 45.68 155.072 46.9756 157.13 46.9756C157.892 46.9756 158.654 46.8232 159.112 46.5946L159.493 48.5761Z" fill="white"/>
<path d="M163.761 38.2129V42.6333H163.99L166.886 38.2129H169.782L166.124 42.9382C167.496 43.243 168.105 44.2338 168.563 45.4532C168.944 46.5964 169.248 47.7396 169.782 48.8066H167.191C166.81 48.1207 166.657 47.2823 166.352 46.444C165.971 45.2246 165.514 44.31 164.218 44.31H163.761V48.7304H161.398V38.2129H163.761Z" fill="white"/>
<path d="M173.365 38.211V41.3357C173.365 43.0125 173.288 44.6892 173.212 46.1372H173.288C173.822 44.9178 174.584 43.4697 175.194 42.3265L177.48 38.1348H179.919V48.7285H177.709V45.6037C177.709 44.0032 177.709 42.5552 177.861 41.1071H177.785C177.328 42.4027 176.642 43.7746 175.956 44.9178L173.822 48.7285H171.078V38.211H173.365Z" fill="white"/>
<path d="M184.566 38.2122V41.337C184.566 43.0137 184.49 44.6904 184.413 46.1385H184.49C185.023 44.9191 185.785 43.471 186.395 42.3278L188.681 38.136H191.12V48.7298H188.91V45.605C188.91 44.0045 188.91 42.5564 189.062 41.1084H188.986C188.529 42.404 187.843 43.7759 187.157 44.9191L185.023 48.7298H182.279V38.2122H184.566ZM186.014 35.8496C186.014 36.4593 186.242 36.8404 186.7 36.8404C187.157 36.8404 187.386 36.4593 187.386 35.8496H188.986C188.91 37.2215 187.995 37.755 186.624 37.755C185.252 37.755 184.49 37.1452 184.337 35.8496H186.014Z" fill="white"/>
<path d="M198.361 38.2129L199.885 42.0236C200.19 42.7857 200.419 43.3954 200.647 44.0814H200.723C200.876 43.6241 201.028 42.9382 201.257 42.0236L202.4 38.2129H204.915L202.934 43.4717C202.324 45.0721 201.638 46.6726 200.876 47.6634C200.19 48.5018 199.275 49.0353 198.056 49.0353C197.522 49.0353 197.218 48.9591 196.913 48.8828L197.065 46.9775C197.294 47.0537 197.522 47.0537 197.827 47.0537C198.589 47.0537 199.047 46.5202 199.275 46.0629C199.352 45.9105 199.275 45.7581 199.199 45.5294L195.693 38.2129H198.361Z" fill="white"/>
<path d="M208.65 38.2129V42.2522H212.613V38.2129H214.976V48.8066H212.613V44.3862H208.65V48.8066H206.287V38.2129H208.65Z" fill="white"/>
<path d="M219.548 38.211V41.3357C219.548 43.0125 219.472 44.6892 219.396 46.1372H219.472C220.005 44.9178 220.768 43.4697 221.377 42.3265L223.664 38.1348H226.103V48.7285H223.892V45.6037C223.892 44.0032 223.892 42.5552 224.045 41.1071H223.969C223.511 42.4027 222.825 43.7746 222.139 44.9178L220.005 48.7285H217.262V38.211H219.548Z" fill="white"/>
<path d="M228.543 38.3634C229.153 38.2872 230.448 38.1348 231.668 38.1348C233.116 38.1348 234.03 38.2872 234.792 38.7445C235.555 39.1255 236.088 39.8877 236.088 40.8023C236.088 41.7168 235.555 42.6314 234.335 43.0887C235.555 43.3935 236.469 44.3081 236.469 45.6799C236.469 46.6707 236.012 47.4329 235.402 47.9664C234.64 48.5761 233.344 48.9571 231.21 48.9571C230.067 48.9571 229.153 48.8809 228.619 48.8047V38.3634H228.543ZM230.906 42.4027H231.668C232.963 42.4027 233.573 41.8692 233.573 41.1071C233.573 40.2688 232.963 39.8877 231.896 39.8877C231.363 39.8877 231.058 39.8877 230.906 39.9639V42.4027ZM230.906 47.128C231.134 47.128 231.439 47.128 231.82 47.128C232.887 47.128 233.878 46.6707 233.878 45.6037C233.878 44.5367 232.887 44.1557 231.744 44.1557H230.906V47.128Z" fill="white"/>
<path d="M244.621 44.3862H240.734V46.9013H245.078V48.8828H238.371V38.2129H244.925V40.1945H240.81V42.4047H244.697V44.3862H244.621Z" fill="white"/>
<path d="M247.061 38.3634C247.823 38.211 248.814 38.1348 250.262 38.1348C251.71 38.1348 252.777 38.4396 253.463 38.9731C254.148 39.5066 254.606 40.4212 254.606 41.412C254.606 42.479 254.301 43.3173 253.615 43.927C252.777 44.6892 251.557 45.0702 250.185 45.0702C249.881 45.0702 249.576 45.0702 249.347 44.994V48.8047H246.984V38.3634H247.061ZM249.423 43.1649C249.652 43.2411 249.881 43.2411 250.262 43.2411C251.557 43.2411 252.319 42.6314 252.319 41.5644C252.319 40.5736 251.633 40.0401 250.414 40.0401C249.957 40.0401 249.576 40.0401 249.423 40.1163V43.1649Z" fill="white"/>
<path d="M264.212 48.5761C263.754 48.8048 262.763 49.0334 261.544 49.0334C257.886 49.0334 255.98 46.747 255.98 43.6984C255.98 40.1164 258.572 38.0586 261.773 38.0586C262.992 38.0586 263.983 38.2872 264.364 38.5159L263.83 40.4212C263.373 40.1926 262.687 40.0402 261.849 40.0402C259.944 40.0402 258.496 41.1834 258.496 43.546C258.496 45.68 259.791 46.9756 261.849 46.9756C262.611 46.9756 263.373 46.8232 263.83 46.5946L264.212 48.5761Z" fill="white"/>
<path d="M268.325 38.211V41.3357C268.325 43.0125 268.249 44.6892 268.173 46.1372H268.249C268.783 44.9178 269.545 43.4697 270.155 42.3265L272.441 38.1348H274.88V48.7285H272.67V45.6037C272.67 44.0032 272.67 42.5552 272.822 41.1071H272.746C272.289 42.4027 271.603 43.7746 270.917 44.9178L268.783 48.7285H266.039V38.211H268.325Z" fill="white"/>
<path d="M279.3 40.2707H276.48V38.2129H284.635V40.1945H281.739V48.8066H279.377V40.2707H279.3Z" fill="white"/>
<path d="M292.486 44.3862H288.599V46.9013H292.943V48.8828H286.16V38.2129H292.715V40.1945H288.599V42.4047H292.486V44.3862Z" fill="white"/>
<path d="M296.982 40.2707H294.086V38.2129H302.241V40.1945H299.345V48.8066H296.982V40.2707Z" fill="white"/>
<defs>
<clipPath id="clip0_2126_6956">
<rect width="65.9825" height="65.9825" fill="white"/>
</clipPath>
</defs>
</svg>
